<?xml version="1.0" standalone="no"?>
<!DOCTYPE svg PUBLIC "-//W3C//DTD SVG 20010904//EN"
 "http://www.w3.org/TR/2001/REC-SVG-20010904/DTD/svg10.dtd">
<svg version="1.0" xmlns="http://www.w3.org/2000/svg"
 width="920.000000pt" height="512.000000pt" viewBox="0 0 920.000000 512.000000"
 preserveAspectRatio="xMidYMid meet">

<g transform="translate(0.000000,512.000000) scale(0.100000,-0.100000)"
fill="#000000" stroke="none">
<path d="M4396 4469 c-352 -37 -713 -185 -991 -407 -344 -275 -588 -667 -679
-1092 -50 -233 -58 -493 -22 -711 179 -1092 1231 -1809 2306 -1573 483 106
907 394 1181 803 388 577 435 1310 123 1932 -355 710 -1126 1132 -1918 1048z
m-298 -741 c51 -24 147 -110 186 -167 l28 -39 31 18 c73 43 150 55 367 55 220
0 294 -10 366 -49 l41 -23 23 34 c60 87 188 183 266 199 l31 6 18 -73 c22 -91
23 -198 1 -273 l-17 -57 36 -41 c72 -85 101 -181 114 -378 5 -74 7 -160 4
-190 -28 -321 -235 -524 -594 -584 l-36 -6 24 -48 c44 -90 53 -165 53 -469 l0
-283 -322 0 -323 0 3 161 3 160 -38 -8 c-72 -14 -214 -7 -275 15 -117 42 -184
105 -258 242 -70 128 -134 216 -180 246 -73 49 -59 70 41 61 96 -8 158 -53
233 -169 47 -71 94 -114 166 -147 46 -21 70 -26 145 -26 50 0 107 6 128 13 34
12 37 17 37 51 0 41 31 141 55 178 14 21 14 22 -23 28 -311 53 -520 223 -578
471 -20 87 -19 320 1 440 18 101 56 192 105 248 l33 37 -16 53 c-29 89 -17
278 20 339 7 11 47 1 101 -25z"/>
</g>
</svg>
